<svg xmlns="http://www.w3.org/2000/svg" xmlns:xlink="http://www.w3.org/1999/xlink" viewBox="0 0 123 24">
    <defs>
        <linearGradient id="linear-gradient" x1="-339.35" y1="1298.27" x2="-321.35" y2="1279.27"
            gradientTransform="translate(342 -1276.63)" gradientUnits="userSpaceOnUse">
            <stop offset="0.06" stop-color="#fff" />
            <stop offset="1" stop-color="#fff" stop-opacity="0.24" />
        </linearGradient>
    </defs>
    <path
        d="M35.69,1.15,52.8,19.25a2.77,2.77,0,0,1,.71,1.43,2.66,2.66,0,0,1-.22,1.57,2.86,2.86,0,0,1-1.06,1.2,3,3,0,0,1-1.57.44H16.6a3,3,0,0,1-1.6-.45,2.81,2.81,0,0,1-1-1.21,2.65,2.65,0,0,1-.21-1.57,2.84,2.84,0,0,1,.72-1.42L31.57,1.14a2.87,2.87,0,0,1,4-.16Z"
        style="fill:#fff;fill-rule:evenodd" />
    <path
        d="M.93,18.4l16.39-17A3.23,3.23,0,0,1,18.4.5,3.37,3.37,0,0,1,19.75.12,3.65,3.65,0,0,1,21.14.3a3.54,3.54,0,0,1,1.2.7,3.42,3.42,0,0,1,.81,1.11,3.19,3.19,0,0,1,0,2.67,3.42,3.42,0,0,1-.81,1.11L6,22.93a3.51,3.51,0,0,1-4.68,0A3.25,3.25,0,0,1,.93,18.4Z"
        style="fill-rule:evenodd;fill:url(#linear-gradient)" />
    <path
        d="M17.48,1.17A3.5,3.5,0,0,1,21.19.32a3.37,3.37,0,0,1,1.59,1.17,3.24,3.24,0,0,1,.14,3.7,3.34,3.34,0,0,1-1.5,1.28,3.52,3.52,0,0,1-3.77-.59,3.42,3.42,0,0,1-.79-1.06,3.25,3.25,0,0,1-.31-1.26,3.29,3.29,0,0,1,.22-1.28A3.34,3.34,0,0,1,17.48,1.17Z"
        style="fill:#fff;fill-rule:evenodd" />
    <path
        d="M69.3,17.58a5.53,5.53,0,0,0,2.23-.42A4.22,4.22,0,0,0,73.08,16a4.89,4.89,0,0,0,.9-1.72,7.17,7.17,0,0,0,.29-2.11V6.61H71.68v5.56a5.74,5.74,0,0,1-.12,1.17,3,3,0,0,1-.4,1,2.18,2.18,0,0,1-.74.71,2.43,2.43,0,0,1-1.12.27,2.56,2.56,0,0,1-1.12-.26,2,2,0,0,1-.73-.7,2.82,2.82,0,0,1-.41-1,5.38,5.38,0,0,1-.13-1.2V6.61H64.32v5.56a7.51,7.51,0,0,0,.28,2.05A4.77,4.77,0,0,0,65.47,16,4.16,4.16,0,0,0,67,17.13,5.34,5.34,0,0,0,69.3,17.58Zm10.18-.09V14h2.27a3.39,3.39,0,0,0,2.6-1.13,3.79,3.79,0,0,0,1-2.56A3.13,3.13,0,0,0,85.06,9a4.08,4.08,0,0,0-.75-1.18A3.88,3.88,0,0,0,83.15,7a3.25,3.25,0,0,0-1.47-.32H76.89V17.49Zm2.12-5.7H79.48v-3h2A1,1,0,0,1,82,8.9a.93.93,0,0,1,.39.26,1.36,1.36,0,0,1,.28.46,1.86,1.86,0,0,1,.1.66,1.67,1.67,0,0,1-.33,1.12,1.17,1.17,0,0,1-.35.28,1,1,0,0,1-.43.1Zm8.34,5.7V13h4.47v4.46H97V6.61H94.41v4.21H89.94V6.61H87.35V17.49Zm12.42,0V6.61h-2.6V17.49Zm10.78,0V15.28h-5.43V6.61h-2.59V17.49Zm9.86,0V15.28h-5.43V6.61H115V17.49Z"
        style="fill:#fff" />
</svg>